<svg width="20" height="20" viewBox="0 0 20 20" fill="none" xmlns="http://www.w3.org/2000/svg">
<path d="M2 9.39648C2 9.16958 2.0993 8.87813 2.43166 8.52889C2.76892 8.1745 3.30422 7.80985 4.04218 7.48187C5.51558 6.82702 7.62114 6.39648 10 6.39648C12.3789 6.39648 14.4844 6.82702 15.9578 7.48187C16.6958 7.80985 17.2311 8.1745 17.5683 8.52889C17.9007 8.87813 18 9.16958 18 9.39648C18 9.71403 17.792 10.1831 17.0364 10.7138C16.2987 11.2321 15.1846 11.695 13.7843 12.0042L14.2157 13.9572C15.7789 13.6119 17.1647 13.0679 18.1861 12.3504C19.1898 11.6453 20 10.6495 20 9.39648C20 8.51882 19.5956 7.75799 19.0171 7.15012C18.4435 6.5474 17.6608 6.05012 16.7701 5.65425C14.9861 4.86137 12.5917 4.39648 10 4.39648C7.40829 4.39648 5.01386 4.86137 3.2299 5.65425C2.33918 6.05012 1.55645 6.5474 0.982869 7.15012C0.40438 7.75799 0 8.51882 0 9.39648C0 10.5983 0.74727 11.5649 1.68881 12.2603C2.53772 12.8873 3.65678 13.3856 4.92457 13.7421L4.69626 15.6776L10 13.3965L5.37259 9.94389L5.16224 11.7272C4.19688 11.4287 3.42241 11.0543 2.87704 10.6515C2.18962 10.1438 2 9.7011 2 9.39648Z" fill="#18181B"/>
</svg>
