<svg width="30" height="30" viewBox="0 0 30 30" fill="none" xmlns="http://www.w3.org/2000/svg">
<path d="M15.4375 2C8.25778 2 2.4375 7.82028 2.4375 15C2.4375 22.1797 8.25778 28 15.4375 28C22.6172 28 28.4375 22.1797 28.4375 15C28.4375 7.82028 22.6172 2 15.4375 2ZM21.4632 10.841C21.2676 12.8967 20.4211 17.8851 19.9902 20.1874C19.808 21.1616 19.4492 21.4883 19.1018 21.5202C18.347 21.5897 17.7736 21.0213 17.0424 20.542C15.8983 19.792 15.2519 19.3251 14.1412 18.5932C12.8577 17.7474 13.6898 17.2827 14.4212 16.5226C14.6127 16.3238 17.939 13.2983 18.0033 13.0238C18.0113 12.9895 18.019 12.8613 17.9428 12.794C17.8666 12.7267 17.7546 12.7495 17.6737 12.7678C17.5589 12.7939 15.7311 14.002 12.1902 16.3922C11.6714 16.7484 11.2015 16.922 10.7804 16.9129C10.3162 16.9029 9.42338 16.6505 8.75959 16.4347C7.94546 16.1701 7.2984 16.0302 7.35475 15.5808C7.3841 15.3466 7.70648 15.1072 8.32189 14.8626C12.1117 13.2115 14.6388 12.1229 15.9032 11.5969C19.5134 10.0952 20.2636 9.83439 20.7526 9.82569C20.8601 9.8239 21.1006 9.85053 21.2563 9.97692C21.3599 10.0669 21.4259 10.1926 21.4414 10.329C21.4677 10.4983 21.4751 10.6701 21.4632 10.841Z" fill="white" fill-opacity="0.8"/>
</svg>
