<svg width="30" height="30" viewBox="0 0 30 30" fill="none" xmlns="http://www.w3.org/2000/svg">
<g clip-path="url(#clip0_226_1067)">
<path d="M29.8106 7.30045C29.4656 6.00132 28.449 4.97817 27.1583 4.63094C24.8188 4 15.4375 4 15.4375 4C15.4375 4 6.05629 4 3.71669 4.63094C2.42597 4.97822 1.4094 6.00132 1.06438 7.30045C0.4375 9.65521 0.4375 14.5682 0.4375 14.5682C0.4375 14.5682 0.4375 19.4811 1.06438 21.8359C1.4094 23.135 2.42597 24.1156 3.71669 24.4628C6.05629 25.0937 15.4375 25.0937 15.4375 25.0937C15.4375 25.0937 24.8187 25.0937 27.1583 24.4628C28.449 24.1156 29.4656 23.135 29.8106 21.8359C30.4375 19.4811 30.4375 14.5682 30.4375 14.5682C30.4375 14.5682 30.4375 9.65521 29.8106 7.30045ZM12.3693 19.0288V10.1076L20.2102 14.5683L12.3693 19.0288Z" fill="white" fill-opacity="0.8"/>
</g>
<defs>
<clipPath id="clip0_226_1067">
<rect width="30" height="30" fill="white"/>
</clipPath>
</defs>
</svg>
