<svg width="31" height="30" viewBox="0 0 31 30" fill="none" xmlns="http://www.w3.org/2000/svg">
<path d="M15.4375 11.5234C14.8488 11.5237 14.2735 11.6984 13.7841 12.0256C13.2948 12.3528 12.9134 12.8178 12.6883 13.3617C12.4632 13.9056 12.4044 14.5041 12.5194 15.0814C12.6344 15.6587 12.9179 16.189 13.3343 16.6051C13.7506 17.0213 14.281 17.3047 14.8583 17.4195C15.4357 17.5342 16.0341 17.4752 16.578 17.2499C17.1218 17.0246 17.5866 16.643 17.9136 16.1536C18.2406 15.6641 18.4152 15.0887 18.4152 14.5C18.4146 13.7106 18.1006 12.9536 17.5423 12.3955C16.984 11.8374 16.2269 11.5237 15.4375 11.5234ZM22.3968 9.23549C22.2452 8.85147 22.0164 8.50269 21.7245 8.21077C21.4326 7.91886 21.0838 7.69004 20.6998 7.5385C19.5279 7.07589 16.7377 7.17969 15.4375 7.17969C14.1373 7.17969 11.3499 7.07199 10.1747 7.5385C9.79065 7.69004 9.44186 7.91886 9.14995 8.21077C8.85803 8.50269 8.62921 8.85147 8.47768 9.23549C8.01562 10.4074 8.11886 13.2003 8.11886 14.4994C8.11886 15.7985 8.01562 18.5882 8.47991 19.764C8.63144 20.148 8.86026 20.4968 9.15218 20.7887C9.4441 21.0806 9.79288 21.3094 10.1769 21.4609C11.3488 21.9235 14.139 21.8198 15.4397 21.8198C16.7405 21.8198 19.5268 21.9275 20.702 21.4609C21.086 21.3094 21.4348 21.0806 21.7267 20.7887C22.0186 20.4968 22.2475 20.148 22.399 19.764C22.865 18.5921 22.7578 15.7991 22.7578 14.5C22.7578 13.2009 22.865 10.4118 22.399 9.23605L22.3968 9.23549ZM15.4375 19.0759C14.5325 19.0759 13.6478 18.8075 12.8953 18.3047C12.1428 17.8019 11.5563 17.0873 11.2099 16.2511C10.8636 15.415 10.773 14.4949 10.9495 13.6073C11.1261 12.7197 11.5619 11.9043 12.2019 11.2644C12.8418 10.6244 13.6572 10.1886 14.5448 10.012C15.4324 9.83547 16.3525 9.92609 17.1886 10.2724C18.0248 10.6188 18.7394 11.2053 19.2422 11.9578C19.745 12.7103 20.0134 13.595 20.0134 14.5C20.0141 15.1011 19.8963 15.6965 19.6666 16.252C19.4369 16.8075 19.0998 17.3122 18.6748 17.7373C18.2497 18.1623 17.745 18.4994 17.1895 18.7291C16.634 18.9588 16.0386 19.0766 15.4375 19.0759ZM20.202 10.8002C19.9907 10.8003 19.7842 10.7378 19.6085 10.6205C19.4327 10.5032 19.2958 10.3364 19.2148 10.1413C19.1339 9.94611 19.1127 9.73134 19.1538 9.52411C19.195 9.31689 19.2967 9.12652 19.446 8.97709C19.5954 8.82766 19.7857 8.72588 19.9929 8.68463C20.2001 8.64337 20.4149 8.66449 20.6101 8.74531C20.8053 8.82614 20.9721 8.96303 21.0895 9.13869C21.2069 9.31435 21.2695 9.52087 21.2695 9.73214C21.2701 9.87244 21.243 10.0115 21.1897 10.1413C21.1365 10.2711 21.0581 10.3891 20.9591 10.4885C20.8602 10.5879 20.7425 10.6669 20.613 10.7207C20.4834 10.7746 20.3445 10.8024 20.2042 10.8025L20.202 10.8002ZM25.2589 2H5.61607C4.90567 2 4.22436 2.28221 3.72204 2.78454C3.21971 3.28687 2.9375 3.96817 2.9375 4.67857L2.9375 24.3214C2.9375 25.0318 3.21971 25.7131 3.72204 26.2155C4.22436 26.7178 4.90567 27 5.61607 27H25.2589C25.9693 27 26.6506 26.7178 27.153 26.2155C27.6553 25.7131 27.9375 25.0318 27.9375 24.3214V4.67857C27.9375 3.96817 27.6553 3.28687 27.153 2.78454C26.6506 2.28221 25.9693 2 25.2589 2ZM24.3036 18.183C24.2316 19.6133 23.9051 20.8806 22.861 21.9219C21.817 22.9632 20.5508 23.2963 19.1222 23.3644C17.6484 23.4475 13.2299 23.4475 11.7561 23.3644C10.3259 23.2924 9.06306 22.9654 8.0173 21.9219C6.97154 20.8783 6.64286 19.6105 6.57478 18.183C6.49163 16.7087 6.49163 12.2896 6.57478 10.817C6.64676 9.38672 6.96931 8.11942 8.0173 7.07812C9.06529 6.03683 10.3315 5.70759 11.7561 5.63951C13.2299 5.55636 17.6484 5.55636 19.1222 5.63951C20.5525 5.7115 21.8192 6.0385 22.861 7.08203C23.9029 8.12556 24.2355 9.39341 24.3036 10.8237C24.3867 12.2924 24.3867 16.7076 24.3036 18.183Z" fill="white" fill-opacity="0.8"/>
</svg>
