<svg width="31" height="30" viewBox="0 0 31 30" fill="none" xmlns="http://www.w3.org/2000/svg">
<path d="M26.6863 12.6622C24.4501 12.6675 22.2687 11.9701 20.4503 10.6685V19.7464C20.4497 21.4278 19.9358 23.0688 18.9773 24.4502C18.0188 25.8316 16.6615 26.8874 15.0867 27.4766C13.512 28.0657 11.7949 28.16 10.1651 27.7469C8.53535 27.3338 7.07051 26.433 5.9665 25.1649C4.86249 23.8969 4.17193 22.3219 3.98715 20.6508C3.80238 18.9796 4.1322 17.2919 4.93251 15.8133C5.73283 14.3346 6.96549 13.1356 8.46567 12.3764C9.96585 11.6172 11.662 11.3342 13.3274 11.565V16.1309C12.5654 15.8912 11.747 15.8984 10.9893 16.1516C10.2315 16.4047 9.57313 16.8908 9.10813 17.5404C8.64312 18.19 8.39527 18.97 8.39998 19.7689C8.40468 20.5677 8.6617 21.3447 9.13433 21.9888C9.60696 22.6329 10.271 23.1112 11.0317 23.3554C11.7924 23.5996 12.6107 23.5972 13.37 23.3485C14.1292 23.0998 14.7904 22.6176 15.2592 21.9707C15.728 21.3238 15.9804 20.5454 15.9804 19.7464V2H20.4503C20.4472 2.37747 20.4788 2.75443 20.5448 3.12611C20.7001 3.95582 21.0231 4.74512 21.4939 5.44574C21.9647 6.14635 22.5735 6.74355 23.2831 7.20081C24.2926 7.86829 25.4761 8.22406 26.6863 8.2238V12.6622Z" fill="white" fill-opacity="0.8"/>
</svg>
